<svg width="21" height="20" viewBox="0 0 21 20" fill="none" xmlns="http://www.w3.org/2000/svg">
<path d="M10.8125 1.875C8.74177 1.87913 6.75702 2.70356 5.29279 4.16779C3.82856 5.63202 3.00413 7.61677 3 9.6875V16.2734C3 16.5987 3.12923 16.9107 3.35925 17.1407C3.58928 17.3708 3.90126 17.5 4.22656 17.5H10.8125C12.8845 17.5 14.8716 16.6769 16.3368 15.2118C17.8019 13.7466 18.625 11.7595 18.625 9.6875C18.625 7.6155 17.8019 5.62836 16.3368 4.16323C14.8716 2.6981 12.8845 1.875 10.8125 1.875ZM7.0625 10.9375C6.87708 10.9375 6.69582 10.8825 6.54165 10.7795C6.38748 10.6765 6.26732 10.5301 6.19636 10.3588C6.12541 10.1875 6.10684 9.99896 6.14301 9.8171C6.17919 9.63525 6.26848 9.4682 6.39959 9.33709C6.5307 9.20598 6.69775 9.11669 6.8796 9.08051C7.06146 9.04434 7.24996 9.06291 7.42127 9.13386C7.59257 9.20482 7.73899 9.32498 7.842 9.47915C7.94502 9.63332 8 9.81458 8 10C8 10.2486 7.90123 10.4871 7.72541 10.6629C7.5496 10.8387 7.31114 10.9375 7.0625 10.9375ZM10.8125 10.9375C10.6271 10.9375 10.4458 10.8825 10.2917 10.7795C10.1375 10.6765 10.0173 10.5301 9.94636 10.3588C9.87541 10.1875 9.85684 9.99896 9.89301 9.8171C9.92919 9.63525 10.0185 9.4682 10.1496 9.33709C10.2807 9.20598 10.4477 9.11669 10.6296 9.08051C10.8115 9.04434 11 9.06291 11.1713 9.13386C11.3426 9.20482 11.489 9.32498 11.592 9.47915C11.695 9.63332 11.75 9.81458 11.75 10C11.75 10.2486 11.6512 10.4871 11.4754 10.6629C11.2996 10.8387 11.0611 10.9375 10.8125 10.9375ZM14.5625 10.9375C14.3771 10.9375 14.1958 10.8825 14.0417 10.7795C13.8875 10.6765 13.7673 10.5301 13.6964 10.3588C13.6254 10.1875 13.6068 9.99896 13.643 9.8171C13.6792 9.63525 13.7685 9.4682 13.8996 9.33709C14.0307 9.20598 14.1977 9.11669 14.3796 9.08051C14.5615 9.04434 14.75 9.06291 14.9213 9.13386C15.0926 9.20482 15.239 9.32498 15.342 9.47915C15.445 9.63332 15.5 9.81458 15.5 10C15.5 10.2486 15.4012 10.4871 15.2254 10.6629C15.0496 10.8387 14.8111 10.9375 14.5625 10.9375Z" fill="white"/>
</svg>
