<svg width="32" height="32" viewBox="0 0 32 32" fill="none" xmlns="http://www.w3.org/2000/svg">
<g opacity="0.4">
<path d="M5.67511 22.125C4.18622 19.613 3.66541 16.6439 4.21045 13.7751C4.75555 10.9064 6.32898 8.33524 8.63544 6.54437C10.9419 4.75351 13.8227 3.86612 16.7371 4.04877C19.6514 4.23138 22.3989 5.47153 24.4637 7.53635C26.5286 9.60114 27.7687 12.3486 27.9513 15.263C28.134 18.1774 27.2465 21.0582 25.4557 23.3646C23.6648 25.6711 21.0937 27.2445 18.2249 27.7896C15.3561 28.3347 12.3871 27.8139 9.87512 26.325L5.7251 27.5C5.55505 27.5497 5.37482 27.5528 5.20319 27.5089C5.03156 27.465 4.87488 27.3757 4.74963 27.2505C4.62433 27.1252 4.5351 26.9685 4.49121 26.7969C4.44727 26.6253 4.45038 26.445 4.50012 26.275L5.67511 22.125Z" fill="black" fill-opacity="0.1"/>
<path fill-rule="evenodd" clip-rule="evenodd" d="M13.7434 28.805C13.7434 28.805 11.6217 28.4328 9.74388 27.4014L5.99745 28.4622C5.99745 28.4622 5.48297 28.6127 4.95528 28.4777C4.95528 28.4777 4.42759 28.3427 4.04245 27.9576C4.04245 27.9576 3.65731 27.5724 3.52232 27.0447C3.52232 27.0447 3.38734 26.517 3.54024 25.9943L4.59859 22.2561C4.59859 22.2561 3.56718 20.3783 3.19502 18.2566C3.19502 18.2566 2.78508 15.9196 3.22799 13.5885C3.22799 13.5885 3.6709 11.2575 4.90942 9.23359C4.90942 9.23359 6.14795 7.20973 8.02209 5.75454C8.02209 5.75454 9.89623 4.29934 12.1638 3.60083C12.1638 3.60083 14.4314 2.90231 16.7996 3.05072C16.7996 3.05072 19.1677 3.19913 21.3303 4.17529C21.3303 4.17529 23.493 5.15145 25.1708 6.82924C25.1708 6.82924 26.8486 8.50703 27.8247 10.6697C27.8247 10.6697 28.8009 12.8323 28.9493 15.2005C28.9493 15.2005 29.0977 17.5686 28.3992 19.8362C28.3992 19.8362 27.7007 22.1038 26.2455 23.9779C26.2455 23.9779 24.7903 25.8521 22.7664 27.0906C22.7664 27.0906 20.7426 28.3291 18.4115 28.772C18.4115 28.772 16.0805 29.2149 13.7434 28.805ZM18.0382 26.8072C18.0382 26.8072 13.9582 27.5824 10.3856 25.4652L10.3849 25.4647C10.1491 25.325 9.86633 25.2881 9.60261 25.3628L5.46596 26.534L6.63721 22.3974C6.71188 22.1337 6.67503 21.8509 6.53528 21.6151C6.53528 21.6151 4.41756 18.0422 5.19284 13.9618C5.19284 13.9618 5.96812 9.88147 9.24867 7.33425C9.24867 7.33425 12.5292 4.78703 16.6745 5.04681C16.6745 5.04681 20.8197 5.30659 23.7566 8.24346C23.7566 8.24346 26.6934 11.1803 26.9532 15.3256C26.9532 15.3256 27.213 19.4708 24.6658 22.7513C24.6658 22.7513 22.1185 26.0319 18.0382 26.8072Z" fill="black"/>
<path d="M12 15H20C20.5523 15 21 14.5523 21 14C21 13.4477 20.5523 13 20 13H12C11.4477 13 11 13.4477 11 14C11 14.5523 11.4477 15 12 15Z" fill="black"/>
<path d="M12 19H20C20.5523 19 21 18.5523 21 18C21 17.4477 20.5523 17 20 17H12C11.4477 17 11 17.4477 11 18C11 18.5523 11.4477 19 12 19Z" fill="black"/>
</g>
</svg>
