<svg width="24" height="24" viewBox="0 0 24 24" fill="none" xmlns="http://www.w3.org/2000/svg">
<path d="M12.75 6.00003L18 11.25L20.4656 8.78442C20.5365 8.71466 20.5928 8.63144 20.6312 8.5397C20.6696 8.44797 20.6894 8.34946 20.6894 8.25003C20.6894 8.1506 20.6696 8.05209 20.6312 7.96036C20.5928 7.86862 20.5365 7.78549 20.4656 7.71564L16.2844 3.53442C16.2146 3.46356 16.1314 3.40726 16.0397 3.3689C15.9479 3.33044 15.8495 3.31067 15.75 3.31067C15.6505 3.31067 15.5521 3.33044 15.4603 3.3689C15.3686 3.40726 15.2854 3.46356 15.2156 3.53442L12.75 6.00003Z" fill="white" fill-opacity="0.1"/>
<path d="M17.4693 11.7799L17.4697 11.7803C17.6103 11.921 17.8011 12 18 12C18.1989 12 18.3897 11.921 18.5303 11.7803C18.671 11.6397 18.75 11.4489 18.75 11.25C18.75 11.0511 18.671 10.8603 18.5303 10.7197L18.5299 10.7193L13.2804 5.46976C13.1397 5.32902 12.9489 5.25 12.75 5.25C12.5511 5.25 12.3603 5.32902 12.2197 5.46967C12.079 5.61032 12 5.80109 12 6C12 6.19891 12.079 6.38968 12.2197 6.53033L17.4693 11.7799Z" fill="white"/>
<path fill-rule="evenodd" clip-rule="evenodd" d="M4.5 21H8.6894L8.69063 21C8.69063 21 8.98612 21.0006 9.25954 20.8883C9.25954 20.8883 9.53418 20.7755 9.74464 20.5661L20.996 9.31474C20.996 9.31474 21.2066 9.10733 21.323 8.82936C21.323 8.82936 21.4394 8.55139 21.4394 8.25004C21.4394 8.25004 21.4394 7.94869 21.323 7.67072C21.323 7.67072 21.2066 7.39275 20.9919 7.18129L16.8147 3.00408C16.8147 3.00408 16.6073 2.79345 16.3293 2.67706C16.3293 2.67706 16.0514 2.56067 15.75 2.56067C15.75 2.56067 15.4487 2.56067 15.1707 2.67706C15.1707 2.67706 14.8927 2.79345 14.6813 3.00816L3.4353 14.2541C3.4353 14.2541 3.22457 14.4659 3.11177 14.7405C3.11177 14.7405 2.99897 15.0151 3.00001 15.312L3 19.5C3 19.5 3 20.1214 3.43934 20.5607C3.43934 20.5607 3.87868 21 4.5 21ZM19.9353 8.25409L8.68935 19.5H4.5L4.5 15.3107L15.75 4.06067L15.754 4.06475L19.9394 8.25004L19.9353 8.25409Z" fill="white"/>
</svg>
