<svg width="32" height="32" viewBox="0 0 32 32" fill="none" xmlns="http://www.w3.org/2000/svg">
<g opacity="0.4">
<path d="M19 26V20C19 19.7349 18.8947 19.4805 18.7072 19.293C18.5195 19.1053 18.2653 19 18 19H14C13.7347 19 13.4805 19.1053 13.2928 19.293C13.1053 19.4805 13 19.7349 13 20V26C13 26.2653 12.8947 26.5197 12.7072 26.7072C12.5195 26.8947 12.2653 27 12 27H6C5.73474 27 5.48047 26.8947 5.29285 26.7072C5.10535 26.5197 5 26.2653 5 26V14.4375C5.0022 14.2991 5.0321 14.1626 5.08801 14.0359C5.1438 13.9093 5.22437 13.795 5.32495 13.7001L15.325 4.61255C15.5094 4.44385 15.7501 4.35034 16 4.35034C16.2499 4.35034 16.4906 4.44385 16.675 4.61255L26.675 13.7001C26.7756 13.795 26.8562 13.9093 26.912 14.0359C26.9679 14.1626 26.9978 14.2991 27 14.4375V26C27 26.2653 26.8947 26.5197 26.7072 26.7072C26.5195 26.8947 26.2653 27 26 27H20C19.7347 27 19.4805 26.8947 19.2928 26.7072C19.1053 26.5197 19 26.2653 19 26Z" fill="black" fill-opacity="0.1"/>
<path fill-rule="evenodd" clip-rule="evenodd" d="M18.5858 27.4142C18.5858 27.4142 18 26.8285 18 26V20H14V26C14 26 14 26.8285 13.4142 27.4142C13.4142 27.4142 12.8284 28 12 28H6C6 28 5.17157 28 4.58579 27.4142C4.58579 27.4142 4 26.8285 4 26V14.4375C4 14.4375 4.00679 14.0096 4.17288 13.6327C4.17288 13.6327 4.33896 13.2558 4.63838 12.973L14.6525 3.87246C14.6525 3.87246 15.2232 3.35034 16 3.35034C16 3.35034 16.7768 3.35034 17.35 3.87471L27.3475 12.96C27.3475 12.96 27.661 13.2558 27.8271 13.6327C27.8271 13.6327 27.9932 14.0096 27.9999 14.4213L28 26C28 26 28 26.8285 27.4142 27.4142C27.4142 27.4142 26.8284 28 26 28H20C20 28 19.1716 28 18.5858 27.4142ZM20 26H26L26.0001 14.4537C26.0001 14.4537 26 14.4461 25.9969 14.4392C25.9969 14.4392 25.9958 14.4365 25.9963 14.436C25.9963 14.436 25.9972 14.4353 26.0021 14.4397L16 5.35034L15.9997 5.35062L15.9975 5.35259L6.01162 14.427C6.01162 14.427 6.00611 14.4322 6.00305 14.4392C6.00305 14.4392 6.00162 14.4424 6.00086 14.4423C6.00086 14.4423 6 14.4421 6 14.4376V26H12V20C12 20 12 19.1716 12.5858 18.5858C12.5858 18.5858 13.1716 18 14 18H18C18 18 18.8284 18 19.4142 18.5858C19.4142 18.5858 20 19.1716 20 20L20 26Z" fill="black"/>
</g>
</svg>
