<svg width="25" height="28" viewBox="0 0 25 28" fill="none" xmlns="http://www.w3.org/2000/svg">
<path d="M9.0749 9.78125V7.67188C9.0749 7.11243 9.27409 6.57591 9.62865 6.18032C9.98321 5.78474 10.4641 5.5625 10.9655 5.5625H20.0405C20.542 5.5625 21.0228 5.78474 21.3774 6.18032C21.732 6.57591 21.9312 7.11243 21.9312 7.67188V20.3281C21.9312 20.8876 21.732 21.4241 21.3774 21.8197C21.0228 22.2153 20.542 22.4375 20.0405 22.4375H10.9655C10.4641 22.4375 9.98321 22.2153 9.62865 21.8197C9.27409 21.4241 9.0749 20.8876 9.0749 20.3281V18.2188" stroke="white" stroke-width="1.75" stroke-linecap="round" stroke-linejoin="round"/>
<path d="M6.05005 9.78125L2.2688 14L6.05005 18.2188" stroke="white" stroke-width="1.75" stroke-linecap="round" stroke-linejoin="round"/>
<path d="M15.1721 14H2.2686" stroke="white" stroke-width="1.75" stroke-linecap="round" stroke-linejoin="round"/>
</svg>
