<svg width="32" height="32" viewBox="0 0 32 32" fill="none" xmlns="http://www.w3.org/2000/svg">
<g opacity="0.4">
<path d="M7.0249 13C7.02319 11.8145 7.2561 10.6403 7.71021 9.54523C8.16431 8.45007 8.83057 7.45563 9.67041 6.61908C10.5105 5.78253 11.5078 5.12042 12.6047 4.6709C13.7019 4.22144 14.877 3.99341 16.0625 4C21.0125 4.03754 24.9749 8.15002 24.9749 13.1125V14C24.9749 18.475 25.9124 21.075 26.7373 22.5C26.825 22.6518 26.8713 22.8239 26.8713 22.9991C26.8716 23.1744 26.8257 23.3466 26.7383 23.4985C26.6509 23.6504 26.5251 23.7767 26.3738 23.8647C26.2222 23.9528 26.05 23.9994 25.875 24H6.125C5.94971 23.9994 5.77759 23.9528 5.62622 23.8647C5.47461 23.7767 5.34888 23.6504 5.26147 23.4985C5.17407 23.3466 5.12817 23.1744 5.12842 22.9991C5.12866 22.8239 5.1748 22.6518 5.26245 22.5C6.0874 21.075 7.0249 18.475 7.0249 14V13Z" fill="black" fill-opacity="0.1"/>
<path fill-rule="evenodd" clip-rule="evenodd" d="M6.0249 14V13C6.0249 13 6.02209 11.0057 6.78643 9.16223C6.78643 9.16223 7.55076 7.31872 8.96486 5.91049C8.96486 5.91049 10.379 4.50226 12.2256 3.7456C12.2256 3.7456 14.0723 2.98893 16.068 3.00004C16.068 3.00004 18.0972 3.01541 19.945 3.82607C19.945 3.82607 21.7228 4.60601 23.0914 6.01184C23.0914 6.01184 24.4547 7.41217 25.2023 9.21786C25.2023 9.21786 25.9749 11.0837 25.9749 13.1125V14C25.9749 14 25.9749 19.1871 27.6028 21.999C27.6028 21.999 27.8709 22.4633 27.8714 22.9983C27.8714 22.9983 27.8718 23.5332 27.6052 23.997C27.6052 23.997 27.3385 24.4607 26.8759 24.7294C26.8759 24.7294 26.4134 24.9981 25.8784 25L6.1249 25C6.1249 25 5.58642 24.9981 5.12384 24.7294C5.12384 24.7294 4.66127 24.4607 4.39461 23.997C4.39461 23.997 4.12794 23.5332 4.12842 22.9983C4.12842 22.9983 4.12889 22.4633 4.39637 22C4.39637 22 6.0249 19.1871 6.0249 14ZM8.0249 14C8.0249 14 8.0249 19.7243 6.12842 23L25.8714 23C25.8714 23 23.9749 19.7234 23.9749 14V13.1125C23.9749 13.1125 23.9749 9.78646 21.6584 7.40696C21.6584 7.40696 19.3393 5.02488 16.0568 5.00001C16.0568 5.00001 14.4608 4.99113 12.9839 5.59627C12.9839 5.59627 11.507 6.20141 10.3761 7.32764C10.3761 7.32764 9.2452 8.45387 8.63393 9.92822C8.63393 9.92822 8.02265 11.4026 8.0249 13V14Z" fill="black"/>
<path d="M21 25V24C21 23.4477 20.5523 23 20 23C19.4477 23 19 23.4477 19 24V25C19 26.2426 18.1213 27.1213 18.1213 27.1213C17.2426 28 16 28 16 28C14.7574 28 13.8787 27.1213 13.8787 27.1213C13 26.2426 13 25 13 25V24C13 23.4477 12.5523 23 12 23C11.4477 23 11 23.4477 11 24L11 25C11 27.0711 12.4645 28.5355 12.4645 28.5355C13.9289 30 16 30 16 30C18.0711 30 19.5355 28.5355 19.5355 28.5355C21 27.0711 21 25 21 25Z" fill="black"/>
</g>
</svg>
