<svg width="32" height="32" viewBox="0 0 32 32" fill="none" xmlns="http://www.w3.org/2000/svg">
<g opacity="0.4">
<path fill-rule="evenodd" clip-rule="evenodd" d="M25.4624 11.45L28.6999 13.2499C29.1042 15.0606 29.1084 16.9376 28.7124 18.7499L25.4624 20.55C25.2392 21.0258 24.9758 21.4816 24.675 21.9125L24.7375 25.6249C23.3655 26.8753 21.7414 27.8172 19.9748 28.3875L16.7873 26.475C16.2632 26.5125 15.7368 26.5125 15.2124 26.475L12.0373 28.3749C10.2654 27.8151 8.63596 26.8768 7.26242 25.6249L7.32492 21.925C7.02659 21.4882 6.76316 21.0284 6.53733 20.55L3.30002 18.7499C2.90207 16.9387 2.89768 15.063 3.28733 13.2499L6.53733 11.45C6.76047 10.9742 7.0239 10.5184 7.32492 10.0875L7.26242 6.37494C8.6345 5.12469 10.2583 4.18268 12.0249 3.61249L15.2124 5.52496C15.7368 5.48749 16.2632 5.48749 16.7873 5.52496L19.9624 3.62494C21.7346 4.18488 23.3637 5.12323 24.7375 6.37494L24.675 10.0875C24.9758 10.5184 25.2392 10.9742 25.4624 11.45ZM12.6665 20.9888C13.6533 21.6481 14.8132 21.9999 16 21.9999C17.5913 21.9999 19.1174 21.3679 20.2426 20.2426C21.3676 19.1174 22 17.5912 22 15.9999C22 14.8133 21.6479 13.6533 20.9887 12.6666C20.3293 11.6799 19.3923 10.9108 18.2961 10.4567C17.1997 10.0026 15.9931 9.88373 14.8293 10.1153C13.6655 10.3467 12.5964 10.9183 11.7573 11.7574C10.9182 12.5965 10.3467 13.6656 10.1152 14.8294C9.88376 15.9933 10.0024 17.1998 10.4565 18.2961C10.9109 19.3924 11.6799 20.3295 12.6665 20.9888Z" fill="black" fill-opacity="0.1"/>
<path fill-rule="evenodd" clip-rule="evenodd" d="M16 9C16 9 18.8995 9 20.9497 11.0503C20.9497 11.0503 23 13.1005 23 16C23 16 23 18.8995 20.9497 20.9497C20.9497 20.9497 18.8995 23 16 23C16 23 13.1005 23 11.0503 20.9497C11.0503 20.9497 9 18.8995 9 16C9 16 9 13.1005 11.0503 11.0503C11.0503 11.0503 13.1005 9 16 9ZM16 11C16 11 13.9289 11 12.4645 12.4645C12.4645 12.4645 11 13.9289 11 16C11 16 11 18.0711 12.4645 19.5355C12.4645 19.5355 13.9289 21 16 21C16 21 18.0711 21 19.5355 19.5355C19.5355 19.5355 21 18.0711 21 16C21 16 21 13.9289 19.5355 12.4645C19.5355 12.4645 18.0711 11 16 11Z" fill="black"/>
<path fill-rule="evenodd" clip-rule="evenodd" d="M25.7375 6.39182L25.6803 9.78957C25.6803 9.78957 25.9767 10.2446 26.2229 10.7285L29.186 12.376C29.4356 12.5147 29.6139 12.7535 29.6761 13.0321C29.6761 13.0321 30.3379 15.9963 29.6896 18.9635C29.6282 19.2445 29.4487 19.4854 29.1971 19.6248L26.2225 21.2723C26.2225 21.2723 25.9764 21.7558 25.6803 22.2104L25.7375 25.6082C25.7423 25.8953 25.6234 26.1707 25.4112 26.3641C25.4112 26.3641 23.169 28.4073 20.2823 29.3391C20.0077 29.4278 19.7081 29.3935 19.4606 29.245L16.5375 27.4911C16.5375 27.4911 15.9998 27.5152 15.4621 27.4911L12.5511 29.2331C12.3057 29.38 12.0091 29.4147 11.7364 29.3285C11.7364 29.3285 8.83667 28.4124 6.58904 26.3641C6.37676 26.1707 6.25791 25.8953 6.26276 25.6081L6.32002 22.218C6.32002 22.218 6.02544 21.7584 5.77785 21.2717L2.81419 19.624C2.56364 19.4847 2.38492 19.2446 2.32341 18.9646C2.32341 18.9646 1.67292 16.0037 2.30995 13.0399C2.37064 12.7575 2.55046 12.5151 2.80312 12.3752L5.77772 10.7277C5.77772 10.7277 6.02383 10.2442 6.31996 9.78957L6.26276 6.39182C6.25793 6.10466 6.37679 5.82929 6.58907 5.63585C6.58907 5.63585 8.83119 3.59271 11.7179 2.66085C11.9926 2.57219 12.2921 2.60651 12.5396 2.755L15.4627 4.50885C15.4627 4.50885 16.0004 4.48478 16.5382 4.50888L19.4491 2.7669C19.6945 2.62003 19.9911 2.58528 20.2639 2.67145C20.2639 2.67145 23.1636 3.58756 25.4112 5.63587C25.6235 5.82931 25.7423 6.10468 25.7375 6.39182ZM23.6753 10.0707L23.73 6.82054C23.73 6.82054 22.0971 5.43745 20.0811 4.71949L17.3011 6.38308C17.1251 6.48843 16.9209 6.53708 16.7163 6.52244C16.7163 6.52244 16.0001 6.47122 15.284 6.52244C15.0789 6.53711 14.8744 6.48824 14.6981 6.38248L11.9092 4.70914C11.9092 4.70914 9.90043 5.43842 8.27026 6.82043L8.32498 10.0707C8.32852 10.2812 8.26551 10.4875 8.14494 10.6601C8.14494 10.6601 7.74186 11.2372 7.44303 11.8745C7.35364 12.0652 7.20633 12.2228 7.02212 12.3248L4.17913 13.8994C4.17913 13.8994 3.80643 16.0006 4.18934 18.1002L7.02355 19.676C7.20637 19.7776 7.35271 19.9341 7.44198 20.1232C7.44198 20.1232 7.74728 20.7702 8.15083 21.3609C8.26762 21.5319 8.32847 21.7349 8.32498 21.9419L8.27029 25.1795C8.27029 25.1795 9.90319 26.5625 11.9192 27.2805L14.6991 25.6169C14.8752 25.5116 15.0793 25.4629 15.284 25.4775C15.284 25.4775 16.0001 25.5288 16.7163 25.4775C16.9213 25.4629 17.1259 25.5117 17.3021 25.6175L20.091 27.2908C20.091 27.2908 22.0998 26.5616 23.73 25.1796L23.6753 21.9293C23.6717 21.7188 23.7347 21.5125 23.8553 21.3399C23.8553 21.3399 24.2584 20.7628 24.5572 20.1255C24.6466 19.9348 24.7939 19.7772 24.9781 19.6752L27.8228 18.0997C27.8228 18.0997 28.2019 15.9993 27.8126 13.9007L24.9767 12.324C24.7931 12.2219 24.6464 12.0647 24.5572 11.8745C24.5572 11.8745 24.2584 11.2372 23.8553 10.6601C23.7347 10.4875 23.6717 10.2812 23.6753 10.0707Z" fill="black"/>
</g>
</svg>
