<svg width="32" height="32" viewBox="0 0 32 32" fill="none" xmlns="http://www.w3.org/2000/svg">
<g opacity="0.4">
<path d="M17.5 13.5C17.5 17.0898 14.5898 20 11 20C7.41016 20 4.5 17.0898 4.5 13.5C4.5 9.91016 7.41016 7 11 7C14.5898 7 17.5 9.91016 17.5 13.5Z" fill="black" fill-opacity="0.1"/>
<path fill-rule="evenodd" clip-rule="evenodd" d="M11 6C11 6 14.1066 6 16.3033 8.1967C16.3033 8.1967 18.5 10.3934 18.5 13.5C18.5 13.5 18.5 16.6066 16.3033 18.8033C16.3033 18.8033 14.1066 21 11 21C11 21 7.8934 21 5.6967 18.8033C5.6967 18.8033 3.5 16.6066 3.5 13.5C3.5 13.5 3.5 10.3934 5.6967 8.1967C5.6967 8.1967 7.8934 6 11 6ZM11 8C11 8 8.72182 8 7.11091 9.61091C7.11091 9.61091 5.5 11.2218 5.5 13.5C5.5 13.5 5.5 15.7782 7.11091 17.3891C7.11091 17.3891 8.72182 19 11 19C11 19 13.2782 19 14.8891 17.3891C14.8891 17.3891 16.5 15.7782 16.5 13.5C16.5 13.5 16.5 11.2218 14.8891 9.61091C14.8891 9.61091 13.2782 8 11 8Z" fill="black"/>
<path d="M25.0766 17.3891C23.4657 19 21.1875 19 21.1875 19C20.6353 19 20.1875 19.4477 20.1875 20C20.1875 20.5523 20.6353 21 21.1875 21C24.2941 21 26.4908 18.8033 26.4908 18.8033C28.6876 16.6066 28.6875 13.5 28.6875 13.5C28.6875 10.3934 26.4908 8.1967 26.4908 8.1967C24.2942 6 21.1876 6 21.1876 6C20.1563 6.00314 19.1639 6.27221 19.1639 6.27221L19.1633 6.27237C18.7276 6.39055 18.425 6.78603 18.425 7.2375L18.4251 7.24778C18.426 7.33274 18.4377 7.41725 18.4599 7.49926C18.5781 7.93499 18.9736 8.2375 19.425 8.2375L19.4353 8.23745C19.5203 8.23657 19.6048 8.22488 19.6868 8.20263L19.6871 8.20256C20.4255 8.00232 21.1876 8 21.1876 8C23.4657 8 25.0766 9.61091 25.0766 9.61091C26.6875 11.2218 26.6875 13.5 26.6875 13.5C26.6875 15.7782 25.0766 17.3891 25.0766 17.3891Z" fill="black"/>
<path d="M15.61 22.1256C17.7775 23.2516 19.1818 25.25 19.1818 25.25C19.3691 25.5164 19.6743 25.675 20 25.675C20.0112 25.675 20.0224 25.6748 20.0335 25.6745C20.2278 25.6679 20.4159 25.605 20.575 25.4932C20.792 25.3407 20.9395 25.1083 20.9851 24.847C20.995 24.7902 21 24.7327 21 24.675L20.9998 24.6534C20.9955 24.455 20.9323 24.2624 20.8182 24.1001C19.133 21.702 16.532 20.3508 16.532 20.3508C13.931 18.9996 11 18.9996 11 18.9996C8.06899 18.9996 5.46801 20.3508 5.46801 20.3508C2.86717 21.7019 1.182 24.0998 1.182 24.0998L1.18182 24.1001C1.06349 24.2684 1 24.4692 1 24.675C1 24.6981 1.0008 24.7213 1.00241 24.7443C1.02329 25.0449 1.17855 25.32 1.42504 25.4932C1.59342 25.6115 1.7942 25.675 2 25.675L2.00299 25.675C2.05964 25.6748 2.11618 25.6699 2.17198 25.6601C2.43325 25.6145 2.66569 25.467 2.81818 25.25C4.22252 23.2516 6.39001 22.1256 6.39001 22.1256C8.55749 20.9996 11 20.9996 11 20.9996C13.4425 20.9996 15.61 22.1256 15.61 22.1256Z" fill="black"/>
<path d="M29.3685 25.2488L29.369 25.2495C29.5562 25.5162 29.8616 25.675 30.1875 25.675C30.1985 25.675 30.2095 25.6748 30.2205 25.6745C30.4147 25.668 30.6029 25.6052 30.762 25.4935C31.0287 25.3063 31.1875 25.0009 31.1875 24.675C31.1875 24.664 31.1873 24.653 31.187 24.642C31.1805 24.4478 31.1177 24.2596 31.006 24.1005C31.0053 24.0995 31.0047 24.0986 31.0047 24.0986C29.3207 21.7004 26.7201 20.3496 26.7201 20.3496C24.1188 18.9983 21.1875 19 21.1875 19L21.1869 19C20.9217 19.0002 20.6674 19.1057 20.48 19.2933C20.2927 19.4808 20.1875 19.735 20.1875 20L20.1875 20.0006C20.1878 20.5527 20.6355 21 21.1875 21H21.1881C23.6306 20.9985 25.7982 22.1244 25.7982 22.1244C27.9653 23.2501 29.3685 25.2488 29.3685 25.2488Z" fill="black"/>
</g>
</svg>
